<svg id="Group_740" data-name="Group 740" xmlns="http://www.w3.org/2000/svg" width="24" height="24" viewBox="0 0 24 24">
  <rect id="Rectangle_341" data-name="Rectangle 341" width="24" height="24" fill="none"/>
  <g id="bcTJua.tif" transform="translate(3.115 1.893)">
    <g id="Group_257" data-name="Group 257">
      <path id="Path_194" data-name="Path 194" d="M-120.031,2432.8a6.193,6.193,0,0,1,3.252,1.491,6.449,6.449,0,0,1,2.286,4.6,6.272,6.272,0,0,1-.967,3.816c-.673,1.075-1.366,2.139-2.049,3.208-.03.047-.053.1-.085.157l.111.031c.816.2,1.64.371,2.445.6a5.848,5.848,0,0,1,1.995,1.008,2.271,2.271,0,0,1,.9,1.306,1.846,1.846,0,0,1-.6,1.767,5.163,5.163,0,0,1-1.751,1.079,14.958,14.958,0,0,1-4.1.945,22.3,22.3,0,0,1-5.939-.151,12.414,12.414,0,0,1-3.232-.915,3.23,3.23,0,0,1-2.11-2.124v-.474a4.872,4.872,0,0,1,.216-.589,3.224,3.224,0,0,1,1.454-1.315,11.563,11.563,0,0,1,3.246-1.059c.189-.038.379-.072.584-.11-.031-.056-.046-.085-.063-.113-.684-1.069-1.375-2.132-2.049-3.207a6.4,6.4,0,0,1-.857-4.9,6.315,6.315,0,0,1,1.27-2.662,6.365,6.365,0,0,1,3.283-2.207A6.5,6.5,0,0,1-120.031,2432.8Zm-.961,16.37c.055-.082.091-.135.126-.189q2.161-3.384,4.322-6.768a5.243,5.243,0,0,0,.7-4.306,5.309,5.309,0,0,0-6.192-3.891,5.229,5.229,0,0,0-3.266,2.113,5.381,5.381,0,0,0-.209,5.965q1.622,2.533,3.241,5.07C-121.849,2447.825-121.43,2448.485-120.992,2449.172Zm0,2.618c.748-.048,1.5-.08,2.243-.148a13.363,13.363,0,0,0,3.774-.849,3.71,3.71,0,0,0,1.446-.894.628.628,0,0,0-.019-1.017,4.667,4.667,0,0,0-1.03-.711,11.566,11.566,0,0,0-3.481-.958.343.343,0,0,0-.4.2c-.654,1.041-1.319,2.075-1.977,3.113a.617.617,0,0,1-.657.332.658.658,0,0,1-.451-.35c-.67-1.054-1.344-2.106-2.009-3.163a.243.243,0,0,0-.3-.135c-.27.056-.546.081-.817.131a9.4,9.4,0,0,0-3.02.985,3.717,3.717,0,0,0-.786.615.6.6,0,0,0,0,.914,2.454,2.454,0,0,0,.423.381,6.668,6.668,0,0,0,2.048.9A19.911,19.911,0,0,0-121,2451.789Z" transform="translate(129.874 -2432.733)" fill="#ff3030" stroke="#ff3030" stroke-width="0.2"/>
      <path id="Path_195" data-name="Path 195" d="M22.77,2523.292a2.962,2.962,0,1,1-2.961,2.966A2.971,2.971,0,0,1,22.77,2523.292Zm-1.776,2.97a1.776,1.776,0,1,0,1.762-1.785A1.792,1.792,0,0,0,20.994,2526.262Z" transform="translate(-13.885 -2519.708)" fill="#ff3030" stroke="#ff3030" stroke-width="0.2"/>
    </g>
  </g>
</svg>
